<?xml version="1.0" standalone="no"?>
<!DOCTYPE svg PUBLIC "-//W3C//DTD SVG 20010904//EN"
 "http://www.w3.org/TR/2001/REC-SVG-20010904/DTD/svg10.dtd">
<svg version="1.0" xmlns="http://www.w3.org/2000/svg"
 width="784.000000pt" height="784.000000pt" viewBox="0 0 784.000000 784.000000"
 preserveAspectRatio="xMidYMid meet">
<metadata>
Created by potrace 1.14, written by Peter Selinger 2001-2017
</metadata>
<g transform="translate(0.000000,784.000000) scale(0.100000,-0.100000)"
fill="#000000" stroke="none">
<path d="M3760 7680 c-78 -14 -165 -38 -240 -68 -62 -24 -2487 -1366 -2638
-1459 -155 -96 -301 -263 -383 -439 -70 -147 -90 -250 -92 -459 -4 -390 15
-2656 23 -2756 25 -313 177 -588 420 -761 78 -55 2504 -1437 2609 -1486 40
-18 117 -45 170 -59 83 -22 117 -26 251 -26 134 0 168 4 251 26 53 14 130 41
170 59 77 36 2493 1414 2589 1477 128 84 275 251 348 396 37 74 78 204 91 287
15 93 16 2973 2 3059 -39 235 -183 481 -363 624 -87 69 -61 53 -1023 597
-1772 1002 -1654 939 -1820 973 -95 20 -287 28 -365 15z m500 -1649 c369 -207
386 -221 377 -295 -4 -25 -16 -49 -34 -66 -24 -24 -744 -410 -764 -410 -4 0
-10 44 -13 98 -11 166 -35 211 -118 218 -41 4 -73 -13 -693 -365 -482 -274
-655 -377 -667 -398 -16 -24 -18 -56 -18 -236 0 -229 5 -254 60 -282 16 -8 43
-15 60 -15 21 0 246 110 705 345 371 190 678 345 682 345 5 0 6 -118 4 -261
l-3 -262 33 20 c19 12 373 208 788 438 478 264 768 419 790 422 31 4 55 -7
166 -70 152 -87 179 -117 172 -186 -3 -28 -13 -52 -28 -66 -13 -13 -388 -229
-834 -480 -445 -252 -823 -470 -840 -486 l-30 -29 -3 -174 -3 -173 26 -31 c14
-17 42 -36 63 -43 43 -14 -43 -56 1044 512 747 391 719 380 786 313 l35 -35
-6 -287 c-20 -909 -28 -1233 -33 -1280 -4 -34 -13 -61 -27 -77 -12 -13 -467
-270 -1012 -570 -826 -455 -996 -545 -1028 -545 -32 0 -98 35 -399 212 -200
117 -366 222 -375 235 -23 35 -22 97 3 130 23 30 681 416 696 407 4 -3 8 -38
9 -77 1 -139 12 -187 47 -218 64 -57 42 -67 815 341 429 226 712 382 728 399
24 26 28 40 34 134 4 58 6 139 3 181 -3 70 -6 79 -36 109 -61 60 -38 69 -841
-321 -398 -193 -732 -354 -743 -358 -20 -6 -21 -4 -14 103 6 88 4 117 -8 146
-16 40 -67 77 -105 77 -14 0 -293 -141 -620 -312 -327 -172 -611 -319 -629
-325 -19 -7 -46 -10 -61 -6 -14 3 -93 45 -174 92 -158 91 -177 110 -177 176 0
26 8 44 33 69 20 21 342 209 857 501 454 256 837 479 852 495 36 39 39 72 36
372 l-3 257 -215 -113 c-1663 -874 -1687 -886 -1730 -886 -34 0 -48 6 -76 34
l-34 34 0 184 c1 100 7 450 14 777 13 561 15 595 33 620 13 17 368 218 1014
575 547 301 1005 552 1019 556 14 5 36 6 50 4 14 -3 176 -90 360 -193z"/>
</g>
</svg>
